<svg xmlns="http://www.w3.org/2000/svg" viewBox="0 0 1261 815" fill="none">
  <rect width="1261" height="815" fill="#0f172a"/>
  <!-- Sidebar -->
  <rect x="0" y="0" width="220" height="815" fill="#1e293b" rx="0"/>
  <rect x="0" y="0" width="220" height="815" fill="url(#sidebarGrad)" rx="0"/>
  <!-- Logo area -->
  <rect x="20" y="20" width="180" height="36" rx="6" fill="#0ea5e9" opacity="0.15"/>
  <text x="40" y="44" font-family="monospace" font-size="14" font-weight="bold" fill="#0ea5e9">TOALESCO CLUBES</text>
  <!-- Sidebar items -->
  <rect x="12" y="80" width="196" height="32" rx="6" fill="#0ea5e9" fill-opacity="0.1"/>
  <text x="30" y="100" font-family="monospace" font-size="12" fill="#0ea5e9">$ Dashboard</text>
  <rect x="12" y="120" width="196" height="32" rx="6" fill="#1e293b"/>
  <text x="30" y="140" font-family="monospace" font-size="12" fill="#94a3b8">$ Socios</text>
  <rect x="12" y="160" width="196" height="32" rx="6" fill="#1e293b"/>
  <text x="30" y="180" font-family="monospace" font-size="12" fill="#94a3b8">$ Finanzas</text>
  <rect x="12" y="200" width="196" height="32" rx="6" fill="#1e293b"/>
  <text x="30" y="220" font-family="monospace" font-size="12" fill="#94a3b8">$ Calendario</text>
  <rect x="12" y="240" width="196" height="32" rx="6" fill="#1e293b"/>
  <text x="30" y="260" font-family="monospace" font-size="12" fill="#94a3b8">$ Estadísticas</text>
  <rect x="12" y="280" width="196" height="32" rx="6" fill="#1e293b"/>
  <text x="30" y="300" font-family="monospace" font-size="12" fill="#94a3b8">$ Comunicaciones</text>
  <rect x="12" y="320" width="196" height="32" rx="6" fill="#1e293b"/>
  <text x="30" y="340" font-family="monospace" font-size="12" fill="#94a3b8">$ Configuración</text>
  <!-- Top bar -->
  <rect x="220" y="0" width="1041" height="56" fill="#1e293b"/>
  <rect x="220" y="56" width="1041" height="1" fill="#334155"/>
  <!-- Search bar -->
  <rect x="240" y="14" width="300" height="28" rx="6" fill="#0f172a" stroke="#334155" stroke-width="1"/>
  <text x="255" y="33" font-family="monospace" font-size="11" fill="#64748b">Buscar socio, club, evento...</text>
  <!-- User avatar area -->
  <circle cx="1180" cy="28" r="14" fill="#0ea5e9" fill-opacity="0.2"/>
  <text x="1173" y="33" font-family="monospace" font-size="11" fill="#0ea5e9">CL</text>
  <!-- Stats cards row -->
  <rect x="240" y="76" width="235" height="90" rx="8" fill="#1e293b" stroke="#334155" stroke-width="1"/>
  <text x="260" y="100" font-family="monospace" font-size="10" fill="#64748b">SOCIOS ACTIVOS</text>
  <text x="260" y="140" font-family="monospace" font-size="28" font-weight="bold" fill="#0ea5e9">1,247</text>
  <text x="420" y="140" font-family="monospace" font-size="10" fill="#10b981">+12%</text>

  <rect x="490" y="76" width="235" height="90" rx="8" fill="#1e293b" stroke="#334155" stroke-width="1"/>
  <text x="510" y="100" font-family="monospace" font-size="10" fill="#64748b">PRÓXIMOS EVENTOS</text>
  <text x="510" y="140" font-family="monospace" font-size="28" font-weight="bold" fill="#10b981">18</text>
  <text x="660" y="140" font-family="monospace" font-size="10" fill="#0ea5e9">esta semana</text>

  <rect x="740" y="76" width="235" height="90" rx="8" fill="#1e293b" stroke="#334155" stroke-width="1"/>
  <text x="760" y="100" font-family="monospace" font-size="10" fill="#64748b">INGRESOS DEL MES</text>
  <text x="760" y="140" font-family="monospace" font-size="28" font-weight="bold" fill="#10b981">$2.8M</text>
  <text x="920" y="140" font-family="monospace" font-size="10" fill="#f59e0b">+8% vs mes ant.</text>

  <!-- Graph area -->
  <rect x="240" y="182" width="735" height="280" rx="8" fill="#1e293b" stroke="#334155" stroke-width="1"/>
  <text x="260" y="206" font-family="monospace" font-size="11" font-weight="bold" fill="#e2e8f0">$ graph actividad mensual</text>
  <!-- Simple bar chart -->
  <rect x="280" y="360" width="28" height="70" rx="3" fill="#0ea5e9" fill-opacity="0.6"/>
  <rect x="330" y="330" width="28" height="100" rx="3" fill="#0ea5e9" fill-opacity="0.6"/>
  <rect x="380" y="350" width="28" height="80" rx="3" fill="#0ea5e9" fill-opacity="0.6"/>
  <rect x="430" y="310" width="28" height="120" rx="3" fill="#10b981" fill-opacity="0.6"/>
  <rect x="480" y="340" width="28" height="90" rx="3" fill="#0ea5e9" fill-opacity="0.6"/>
  <rect x="530" y="300" width="28" height="130" rx="3" fill="#10b981" fill-opacity="0.6"/>
  <rect x="580" y="320" width="28" height="110" rx="3" fill="#0ea5e9" fill-opacity="0.6"/>
  <rect x="630" y="290" width="28" height="140" rx="3" fill="#10b981" fill-opacity="0.6"/>
  <rect x="680" y="305" width="28" height="125" rx="3" fill="#0ea5e9" fill-opacity="0.6"/>
  <rect x="730" y="310" width="28" height="120" rx="3" fill="#10b981" fill-opacity="0.6"/>
  <rect x="780" y="340" width="28" height="90" rx="3" fill="#0ea5e9" fill-opacity="0.6"/>
  <rect x="830" y="280" width="28" height="150" rx="3" fill="#10b981" fill-opacity="0.6"/>
  <text x="280" y="450" font-family="monospace" font-size="8" fill="#64748b">Ene</text>
  <text x="325" y="450" font-family="monospace" font-size="8" fill="#64748b">Feb</text>
  <text x="375" y="450" font-family="monospace" font-size="8" fill="#64748b">Mar</text>
  <text x="425" y="450" font-family="monospace" font-size="8" fill="#64748b">Abr</text>
  <text x="478" y="450" font-family="monospace" font-size="8" fill="#64748b">May</text>
  <text x="528" y="450" font-family="monospace" font-size="8" fill="#64748b">Jun</text>
  <text x="577" y="450" font-family="monospace" font-size="8" fill="#64748b">Jul</text>
  <text x="626" y="450" font-family="monospace" font-size="8" fill="#64748b">Ago</text>
  <text x="676" y="450" font-family="monospace" font-size="8" fill="#64748b">Sep</text>
  <text x="726" y="450" font-family="monospace" font-size="8" fill="#64748b">Oct</text>
  <text x="776" y="450" font-family="monospace" font-size="8" fill="#64748b">Nov</text>
  <text x="826" y="450" font-family="monospace" font-size="8" fill="#64748b">Dic</text>

  <!-- Y axis labels -->
  <text x="245" y="425" font-family="monospace" font-size="8" fill="#64748b">0</text>
  <text x="245" y="370" font-family="monospace" font-size="8" fill="#64748b">50</text>
  <text x="245" y="310" font-family="monospace" font-size="8" fill="#64748b">100</text>

  <!-- Recent activity panel -->
  <rect x="240" y="480" width="735" height="155" rx="8" fill="#1e293b" stroke="#334155" stroke-width="1"/>
  <text x="260" y="504" font-family="monospace" font-size="11" font-weight="bold" fill="#e2e8f0">$ tail -f actividad_reciente.log</text>

  <circle cx="270" cy="530" r="4" fill="#10b981"/>
  <text x="285" y="534" font-family="monospace" font-size="10" fill="#94a3b8">Nuevo socio registrado: Juan Pérez — Club Deportivo Los Ríos</text>

  <circle cx="270" cy="555" r="4" fill="#0ea5e9"/>
  <text x="285" y="559" font-family="monospace" font-size="10" fill="#94a3b8">Cuota mensual procesada: Club Deportivo Valdivia — $340,000</text>

  <circle cx="270" cy="580" r="4" fill="#f59e0b"/>
  <text x="285" y="584" font-family="monospace" font-size="10" fill="#94a3b8">Evento creado: Partido amistoso — Sábado 15:00 hrs</text>

  <circle cx="270" cy="605" r="4" fill="#10b981"/>
  <text x="285" y="609" font-family="monospace" font-size="10" fill="#94a3b8">Pago recibido: Club Deportivo Mafil — $120,000 (cuota socios)</text>

  <!-- Right panel: Club selector -->
  <rect x="990" y="76" width="255" height="559" rx="8" fill="#1e293b" stroke="#334155" stroke-width="1"/>
  <text x="1010" y="100" font-family="monospace" font-size="11" font-weight="bold" fill="#e2e8f0">$ clubes activos</text>

  <rect x="1000" y="115" width="235" height="60" rx="6" fill="#0f172a" stroke="#334155" stroke-width="1"/>
  <text x="1015" y="137" font-family="monospace" font-size="11" font-weight="bold" fill="#e2e8f0">CD Los Ríos</text>
  <text x="1015" y="157" font-family="monospace" font-size="9" fill="#64748b">342 socios · 8 eventos</text>

  <rect x="1000" y="185" width="235" height="60" rx="6" fill="#0f172a" stroke="#334155" stroke-width="1"/>
  <text x="1015" y="207" font-family="monospace" font-size="11" font-weight="bold" fill="#e2e8f0">CD Valdivia</text>
  <text x="1015" y="227" font-family="monospace" font-size="9" fill="#64748b">512 socios · 14 eventos</text>

  <rect x="1000" y="255" width="235" height="60" rx="6" fill="#0f172a" stroke="#334155" stroke-width="1"/>
  <text x="1015" y="277" font-family="monospace" font-size="11" font-weight="bold" fill="#e2e8f0">CD Mafil</text>
  <text x="1015" y="297" font-family="monospace" font-size="9" fill="#64748b">189 socios · 5 eventos</text>

  <rect x="1000" y="325" width="235" height="60" rx="6" fill="#0f172a" stroke="#334155" stroke-width="1"/>
  <text x="1015" y="347" font-family="monospace" font-size="11" font-weight="bold" fill="#e2e8f0">CD Mariquina</text>
  <text x="1015" y="367" font-family="monospace" font-size="9" fill="#64748b">278 socios · 11 eventos</text>

  <rect x="1000" y="395" width="235" height="60" rx="6" fill="#0f172a" stroke="#334155" stroke-width="1"/>
  <text x="1015" y="417" font-family="monospace" font-size="11" font-weight="bold" fill="#e2e8f0">CD Lanco</text>
  <text x="1015" y="437" font-family="monospace" font-size="9" fill="#64748b">156 socios · 3 eventos</text>

  <!-- Bottom status bar -->
  <rect x="220" y="648" width="1041" height="1" fill="#334155"/>
  <rect x="220" y="649" width="1041" height="166" fill="#0f172a"/>
  <text x="240" y="680" font-family="monospace" font-size="10" fill="#10b981">● Sistema operando</text>
  <text x="240" y="700" font-family="monospace" font-size="10" fill="#64748b">PostgreSQL: conectado</text>
  <text x="240" y="720" font-family="monospace" font-size="10" fill="#64748b">Redis cluster: online</text>
  <text x="240" y="740" font-family="monospace" font-size="10" fill="#64748b">5 clubes activos · 1,477 socios totales</text>
  <text x="240" y="760" font-family="monospace" font-size="10" fill="#64748b">Último deploy: 2026-05-20T11:00:00Z</text>
  <text x="1000" y="740" font-family="monospace" font-size="9" fill="#64748b">v1.0.0 · build #042</text>
  <!-- Gradient definition -->
  <defs>
    <linearGradient id="sidebarGrad" x1="0" y1="0" x2="0" y2="1">
      <stop offset="0%" stop-color="#1e293b"/>
      <stop offset="100%" stop-color="#0f172a"/>
    </linearGradient>
  </defs>
</svg>
